<svg xmlns="http://www.w3.org/2000/svg" width="30" height="30" xml:space="preserve" viewBox="0 0 508 508"><circle cx="254" cy="254" r="254" style="fill:#324a5e"/><path d="M334 455.6 80.8 384.4c-5.2-1.6-8-6.8-6.8-12l88-313.6c1.6-5.2 6.8-8 12-6.8l252.8 71.2c5.2 1.6 8 6.8 6.8 12l-88 313.6c-1.2 5.2-6.8 8-11.6 6.8z" style="fill:#e6e9ee"/><path d="M385.2 426.4H122.8c-5.2 0-9.6-4.4-9.6-9.6V91.2c0-5.2 4.4-9.6 9.6-9.6h262.8c5.2 0 9.6 4.4 9.6 9.6v325.6c-.4 5.2-4.4 9.6-10 9.6z" style="fill:#fff"/><path d="M132.4 134c0-1.6 1.2-3.2 3.2-3.2 4 0 4.4-4 4.4-4.4v-22.8c0-1.6 1.2-3.2 3.2-3.2 1.6 0 3.2 1.2 3.2 3.2v22.8c0 .4 0 2.8-1.2 5.2-1.6 3.6-5.2 5.6-9.2 5.6-2.4 0-3.6-1.6-3.6-3.2zM150.4 118.8c0-10 8-18.4 17.6-18.4s17.6 8 17.6 18.4c0 10-8 18.4-17.6 18.4-10 0-17.6-8.4-17.6-18.4zm6 0c0 6.8 5.2 12 11.2 12 6.4 0 11.6-5.6 11.6-12 0-6.8-5.2-12-11.6-12-6 0-11.2 5.2-11.2 12zM214 125.6c0 7.2-5.6 11.6-10.8 11.6h-10.8c-1.6 0-3.2-1.2-3.2-3.2v-30.4c0-1.6 1.2-3.2 3.2-3.2h8.4c.4 0 2.4 0 4.8 1.2 3.2 1.6 5.2 4.8 5.2 8.8 0 2-.4 4-1.6 5.6 3.2 2.4 4.8 5.6 4.8 9.6zm-18.4-11.2h4.4c.8 0 4.4 0 4.4-4 0-3.6-2.4-4-3.2-4H195.6v8zm12.4 11.2c0-2-1.2-5.2-4.8-5.2H196v10.8h7.2s1.6 0 2.8-.8c1.6-1.2 2-3.2 2-4.8z" style="fill:#84dbff"/><path d="M127.6 158.8h116.8v8.8H127.6zM263.6 158.8h116.8v8.8H263.6zM127.6 184.8h116.8v8.8H127.6zM263.6 184.8h116.8v8.8H263.6zM127.6 211.2h116.8v8.8H127.6zM263.6 211.2h116.8v8.8H263.6zM127.6 237.6h116.8v8.8H127.6zM263.6 237.6h116.8v8.8H263.6zM127.6 264h116.8v8.8H127.6zM263.6 264h116.8v8.8H263.6zM127.6 290.4h116.8v8.8H127.6zM263.6 290.4h116.8v8.8H263.6zM127.6 316.8h116.8v8.8H127.6zM263.6 316.8h116.8v8.8H263.6zM127.6 343.2h116.8v8.8H127.6zM263.6 343.2h116.8v8.8H263.6zM127.6 369.6h116.8v8.8H127.6zM263.6 369.6h116.8v8.8H263.6zM127.6 396h116.8v8.8H127.6zM263.6 396h116.8v8.8H263.6z" style="fill:#e6e9ee"/></svg>